<svg width="280" height="297" viewBox="0 0 280 297" fill="none" xmlns="http://www.w3.org/2000/svg">
<rect y="0.71582" width="280" height="296" rx="8" fill="#753405" fill-opacity="0.2"/>
<path d="M184.333 167.716C170.337 167.716 159 179.052 159 193.049C159 197.799 160.33 202.296 162.673 206.096C167.043 213.442 175.087 218.382 184.333 218.382C193.58 218.382 201.623 213.442 205.993 206.096C208.337 202.296 209.667 197.799 209.667 193.049C209.667 179.052 198.33 167.716 184.333 167.716ZM197.443 190.326L183.953 202.802C183.067 203.626 181.863 204.069 180.723 204.069C179.52 204.069 178.317 203.626 177.367 202.676L171.096 196.406C169.26 194.569 169.26 191.529 171.096 189.692C172.933 187.856 175.973 187.856 177.81 189.692L180.85 192.732L190.983 183.359C192.883 181.586 195.923 181.712 197.697 183.612C199.47 185.512 199.343 188.489 197.443 190.326Z" fill="#753405"/>
<path d="M203.333 120.469V129.716H76.6667V120.469C76.6667 105.966 88.4469 94.2493 102.95 94.2493H177.05C191.553 94.2493 203.333 105.966 203.333 120.469Z" fill="#753405"/>
<path opacity="0.4" d="M76.6667 129.716V176.962C76.6667 191.466 88.3835 203.182 102.887 203.182H142.534C146.207 203.182 149.373 200.079 149.057 196.406C148.17 186.716 151.274 176.202 159.887 167.842C163.434 164.359 167.804 161.699 172.554 160.179C180.47 157.646 188.133 157.962 194.91 160.242C199.027 161.636 203.333 158.659 203.333 154.289V129.716H76.6667ZM114.667 181.966H102C99.4034 181.966 97.2501 179.812 97.2501 177.216C97.2501 174.619 99.4034 172.466 102 172.466H114.667C117.263 172.466 119.417 174.619 119.417 177.216C119.417 179.812 117.263 181.966 114.667 181.966Z" fill="#753405"/>
<path d="M119.417 177.216C119.417 179.812 117.263 181.966 114.667 181.966H102C99.4033 181.966 97.25 179.812 97.25 177.216C97.25 174.619 99.4033 172.466 102 172.466H114.667C117.263 172.466 119.417 174.619 119.417 177.216Z" fill="#753405"/>
</svg>
